<svg xmlns="http://www.w3.org/2000/svg" width="19.028" height="19.028" viewBox="0 0 19.028 19.028"><defs><style>.a{fill:#fff;}</style></defs><path class="a" d="M22.477,4.5H5.551A1.051,1.051,0,0,0,4.5,5.551V22.477a1.051,1.051,0,0,0,1.051,1.051h8.463V16H11.74V13.221h2.274V11.17a3.615,3.615,0,0,1,3.9-3.8c1.05,0,2.18.079,2.443.114v2.567H18.607c-1.194,0-1.422.565-1.422,1.4v1.769H20.03L19.658,16H17.185v7.532h5.292a1.051,1.051,0,0,0,1.051-1.051V5.551A1.051,1.051,0,0,0,22.477,4.5Z" transform="translate(-4.5 -4.5)"/></svg>