<svg xmlns="http://www.w3.org/2000/svg" width="22.001" height="22.042" viewBox="0 0 22.001 22.042"><defs><style>.a{fill:none;stroke:#28b288;stroke-linecap:round;stroke-linejoin:round;stroke-width:2px;}</style></defs><path class="a" d="M23.167,18V21.02a2.011,2.011,0,0,1-2.192,2.011A19.9,19.9,0,0,1,12.3,19.944a19.609,19.609,0,0,1-6.034-6.034A19.9,19.9,0,0,1,3.176,5.192,2.011,2.011,0,0,1,5.177,3H8.194a2.011,2.011,0,0,1,2.011,1.73,12.912,12.912,0,0,0,.7,2.826,2.011,2.011,0,0,1-.453,2.122L9.179,10.954a16.09,16.09,0,0,0,6.034,6.034l1.277-1.277a2.011,2.011,0,0,1,2.122-.453,12.912,12.912,0,0,0,2.826.7A2.011,2.011,0,0,1,23.167,18Z" transform="translate(-2.167 -2)"/></svg>